<svg width="150" height="150" fill="none" xmlns="http://www.w3.org/2000/svg"><path d="M80.142 33.218H45.005v68.478H30.012v22.654h29.51c6.06 0 10.89 1.846 15.464 7.644v-22.692c4.575-5.803 9.403-7.649 15.464-7.649h14.517l.006-68.435h-24.83z" fill="#E42313"/><path d="M91.128 101.696l-4.009-12.117H62.955l-4.104 12.117H45.006l24.73-68.478h10.407l24.83 68.478H91.128zm-15.85-48.282l-8.594 24.908h16.902l-8.308-24.908z" fill="#fff"/><path d="M80.141 33.219L85.69 18H30.011L30 101.825h15.02l-.016-68.606H80.14z" fill="#0F3A4C"/><path d="M85.687 18L80.14 33.219h24.836l-.006 68.434H90.452c-6.06 0-10.894 1.847-15.464 7.65V132c4.575-5.803 9.403-7.65 15.464-7.65h29.511L119.968 18h-34.28z" fill="#B12009"/></svg>