<svg width="38" height="38" fill="none" xmlns="http://www.w3.org/2000/svg"><path d="M22.146 18.502a3.55 3.55 0 01-3.558 3.542 3.55 3.55 0 01-3.558-3.542 3.55 3.55 0 013.558-3.541 3.55 3.55 0 013.558 3.541z" fill="#fff"/><path d="M26.908 12.236a3.291 3.291 0 00-.798-1.221 3.306 3.306 0 00-1.227-.795c-.377-.145-.941-.318-1.982-.365-1.126-.052-1.463-.063-4.313-.063-2.85 0-3.188.011-4.314.062-1.04.048-1.606.22-1.981.366a3.3 3.3 0 00-1.228.795c-.354.343-.627.76-.798 1.221-.146.375-.32.938-.368 1.973-.051 1.12-.062 1.457-.062 4.294 0 2.837.011 3.172.062 4.293.048 1.036.222 1.598.368 1.973.17.461.444.878.798 1.221.344.353.764.625 1.227.795.376.146.942.319 1.982.366 1.126.05 1.463.062 4.313.062 2.85 0 3.188-.011 4.314-.062 1.04-.047 1.605-.22 1.982-.366a3.527 3.527 0 002.025-2.016c.146-.375.32-.937.368-1.973.051-1.12.062-1.456.062-4.293s-.01-3.173-.062-4.294c-.047-1.035-.221-1.598-.368-1.973zm-8.32 11.722c-3.028 0-5.482-2.442-5.482-5.456 0-3.013 2.454-5.455 5.482-5.455 3.026 0 5.48 2.442 5.48 5.455 0 3.014-2.454 5.456-5.48 5.456zm5.697-9.852c-.707 0-1.28-.57-1.28-1.275 0-.704.573-1.275 1.28-1.275.708 0 1.281.571 1.281 1.275s-.573 1.275-1.28 1.275z" fill="#fff"/><path d="M18.588 0C8.324 0 0 8.285 0 18.502 0 28.72 8.324 37.005 18.588 37.005c10.265 0 18.588-8.286 18.588-18.503S28.853 0 18.588 0zm10.61 22.883c-.052 1.13-.233 1.903-.497 2.579a5.445 5.445 0 01-3.121 3.107c-.679.262-1.455.442-2.59.494-1.14.051-1.503.064-4.401.064-2.9 0-3.263-.013-4.401-.064-1.136-.052-1.912-.232-2.591-.494a5.233 5.233 0 01-1.89-1.226 5.205 5.205 0 01-1.232-1.881c-.264-.676-.444-1.448-.496-2.58-.052-1.132-.064-1.494-.064-4.38 0-2.885.012-3.247.064-4.38.052-1.13.232-1.903.496-2.579a5.202 5.202 0 011.231-1.882 5.23 5.23 0 011.89-1.225c.68-.263 1.455-.442 2.592-.494 1.138-.052 1.502-.064 4.4-.064 2.899 0 3.263.012 4.4.064 1.137.052 1.913.231 2.592.494a5.235 5.235 0 011.89 1.225 5.21 5.21 0 011.232 1.882c.264.676.444 1.448.496 2.58.052 1.132.064 1.494.064 4.38 0 2.885-.012 3.247-.064 4.38z" fill="#fff"/></svg>