<svg xmlns="http://www.w3.org/2000/svg"><symbol viewBox="0 0 101 52" id="logo"><path d="M23.212 6.942H6.946v31.236H.006V48.51h13.66c2.806 0 5.042.842 7.16 3.486v-10.35c2.117-2.647 4.352-3.49 7.158-3.49h6.72l.002-31.215H23.212z" fill="#E42313"/><path d="M28.296 38.177l-1.856-5.526H15.254l-1.9 5.526H6.946L18.393 6.942h4.818l11.494 31.235h-6.409zm-7.337-22.023L16.98 27.516h7.825l-3.846-11.362z" fill="#fff"/><path d="M23.211 6.942L25.78 0H.005L0 38.236h6.953L6.946 6.942H23.21z" fill="#0F3A4C"/><path d="M48.486 6.942V.428h3.722v1.396h-2.233v5.118h-1.489zm7.793 0V1.824h-1.432l-.14 1.23c-.399 3.422-1.19 4.15-2.734 3.888L52 5.452c.252.047.408.028.631-.232.113-.14.206-.335.29-.585.175-.522.334-1.516.437-2.902l.093-1.302h4.316v6.513H56.28v-.002zm2.201 0L61.188.428h1.33l2.707 6.514h-1.591l-.539-1.37H60.52l-.539 1.37h-1.5zm3.33-4.606l-.735 1.841h1.46l-.725-1.841zM65.94.448a39.478 39.478 0 011.97-.056c1.479 0 2.187.651 2.187 1.618 0 .642-.253 1.127-.745 1.452v.02c.531.196.93.707.93 1.489 0 .66-.232 1.153-.687 1.498-.456.345-1.05.512-1.785.512-.864 0-1.489-.02-1.87-.056V.448zm1.488 1.376v1.183h.492c.455 0 .688-.213.688-.632 0-.372-.316-.585-.717-.585a3.584 3.584 0 00-.463.034zm0 2.485v1.22c.14.037.306.056.502.056.578 0 .864-.232.864-.688 0-.392-.26-.585-.79-.585h-.576v-.003zm3.14 2.633L73.276.428h1.33l2.707 6.514h-1.591l-.539-1.37h-2.578l-.538 1.37h-1.499zm3.33-4.606l-.735 1.841h1.46l-.725-1.841zm5.62 4.606h-1.489V.428c.113 0 .429 0 .94-.01.522-.01.874-.01 1.05-.01.921 0 1.592.206 2.01.615.42.4.625.921.625 1.545 0 .605-.223 1.127-.661 1.555-.438.419-1.023.632-1.748.632a7.27 7.27 0 01-.725-.027v2.214h-.002zm0-5.118v1.489c.232.027.465.046.678.046.475 0 .874-.232.874-.8 0-.502-.299-.755-.903-.755-.025.003-.24.01-.65.02zM88.842.428l-2.083 3.19 2.167 3.321h-1.748l-1.396-2.186-1.376 2.186h-1.748l2.167-3.32L82.76.429h1.748l1.322 2.093L87.097.428h1.745zm2.095 6.514h-1.302V.428h1.488v4.048L94.007.428h1.303v6.514h-1.49V2.894l-2.884 4.048zM96.656.448a39.485 39.485 0 011.971-.056c1.479 0 2.186.651 2.186 1.618 0 .642-.252 1.127-.744 1.452v.02c.531.196.93.707.93 1.489 0 .66-.232 1.153-.688 1.498-.455.345-1.05.512-1.784.512-.865 0-1.489-.02-1.87-.056V.448zm1.489 1.376v1.183h.492c.455 0 .688-.213.688-.632 0-.372-.316-.585-.718-.585-.08-.003-.24.007-.462.034zm0 2.485v1.22c.14.037.306.056.502.056.577 0 .864-.232.864-.688 0-.392-.26-.585-.79-.585h-.576v-.003zM48.486 15.757V9.244h1.499l2.01 2.745 1.897-2.745h1.405v6.513H53.81v-4.15l-1.814 2.539h-.213l-1.805-2.512v4.12h-1.49v.003zm8.7-5.657c.642-.641 1.479-.967 2.502-.967 1.014 0 1.841.306 2.483.921.651.615.977 1.432.977 2.446 0 .977-.326 1.785-.987 2.42-.651.631-1.479.95-2.475.95-1.014 0-1.841-.306-2.492-.921-.642-.615-.967-1.433-.967-2.446.002-.96.318-1.76.96-2.402zm1.173 3.806c.362.382.81.568 1.33.568.594 0 1.06-.186 1.385-.549.326-.372.492-.847.492-1.422 0-.586-.176-1.06-.538-1.423a1.827 1.827 0 00-1.34-.549c-.548 0-.996.187-1.349.549-.352.362-.53.837-.53 1.423.002.556.188 1.02.55 1.403zm10.999 1.209c-.196.223-.493.41-.884.549-.392.14-.8.206-1.237.206-1.013 0-1.833-.306-2.465-.921-.632-.624-.95-1.433-.95-2.446 0-.977.299-1.785.894-2.42.595-.631 1.432-.95 2.512-.95.827 0 1.581.28 1.99.679l-.66 1.116c-.44-.27-.885-.399-1.33-.399-.532 0-.967.176-1.313.522-.345.345-.511.827-.511 1.452 0 .578.186 1.05.548 1.422.362.363.838.549 1.423.549.521 0 .996-.16 1.415-.475l.568 1.116zm.8.642V9.244h1.489v2.838l2.13-2.838h1.784l-2.445 3.004 2.641 3.507H73.87l-2.223-3.098v3.098h-1.489v.002zm6.311-6.494a39.478 39.478 0 011.97-.056c1.48 0 2.187.651 2.187 1.619 0 .641-.252 1.126-.745 1.452v.02c.532.195.93.707.93 1.488 0 .661-.232 1.153-.687 1.499-.456.345-1.05.511-1.785.511-.864 0-1.488-.02-1.87-.056V9.263zm1.486 1.377v1.182h.492c.455 0 .688-.213.688-.631 0-.373-.316-.586-.718-.586a3.657 3.657 0 00-.462.034zm0 2.485v1.22c.14.036.306.056.502.056.578 0 .864-.233.864-.688 0-.392-.26-.586-.79-.586h-.576v-.002zm5.412-3.881v2.037c.206-.027.4-.037.578-.037 1.562 0 2.373.828 2.373 2.197 0 .707-.233 1.275-.708 1.701-.475.42-1.136.632-1.98.632-.253 0-.578 0-.987-.01-.4-.01-.661-.01-.764-.01V9.242h1.488v.003zm0 3.443v1.655c.223.027.373.037.439.037.624 0 .93-.3.93-.904 0-.558-.353-.838-.92-.838-.094.003-.243.023-.449.05zm3.582 3.07V9.244h1.489v6.513h-1.489z" fill="currentColor"/><path d="M25.779 0L23.21 6.942h11.496l-.002 31.216h-6.72c-2.806 0-5.044.842-7.159 3.489V52c2.118-2.647 4.353-3.49 7.159-3.49h13.66L41.649 0h-15.87z" fill="#B12009"/></symbol><symbol viewBox="0 0 19 19" id="faq-arrow"><path d="M16.309.534l-12.51 12.51V1.067H.6v17.439h17.44v-3.2H6.062l12.51-12.509L16.308.534z" fill="currentColor"/></symbol><symbol viewBox="0 0 15 15" id="works-arrow"><path d="M2.506 14.994l9.903-9.904v9.482h2.533V.766H1.136V3.3h9.481L.714 13.202l1.792 1.792z" fill="currentColor"/></symbol><symbol viewBox="0 0 38 38" id="instagram"><path d="M22.146 18.502a3.55 3.55 0 01-3.558 3.542 3.55 3.55 0 01-3.558-3.542 3.55 3.55 0 013.558-3.541 3.55 3.55 0 013.558 3.541z" fill="currentColor"/><path d="M26.908 12.236a3.291 3.291 0 00-.798-1.221 3.306 3.306 0 00-1.227-.795c-.377-.145-.941-.318-1.982-.365-1.126-.052-1.463-.063-4.313-.063-2.85 0-3.188.011-4.314.062-1.04.048-1.606.22-1.981.366a3.3 3.3 0 00-1.228.795c-.354.343-.627.76-.798 1.221-.146.375-.32.938-.368 1.973-.051 1.12-.062 1.457-.062 4.294 0 2.837.011 3.172.062 4.293.048 1.036.222 1.598.368 1.973.17.461.444.878.798 1.221.344.353.764.625 1.227.795.376.146.942.319 1.982.366 1.126.05 1.463.062 4.313.062 2.85 0 3.188-.011 4.314-.062 1.04-.047 1.605-.22 1.982-.366a3.527 3.527 0 002.025-2.016c.146-.375.32-.937.368-1.973.051-1.12.062-1.456.062-4.293s-.01-3.173-.062-4.294c-.047-1.035-.221-1.598-.368-1.973zm-8.32 11.722c-3.028 0-5.482-2.442-5.482-5.456 0-3.013 2.454-5.455 5.482-5.455 3.026 0 5.48 2.442 5.48 5.455 0 3.014-2.454 5.456-5.48 5.456zm5.697-9.852c-.707 0-1.28-.57-1.28-1.275 0-.704.573-1.275 1.28-1.275.708 0 1.281.571 1.281 1.275s-.573 1.275-1.28 1.275z" fill="currentColor"/><path d="M18.588 0C8.324 0 0 8.285 0 18.502 0 28.72 8.324 37.005 18.588 37.005c10.265 0 18.588-8.286 18.588-18.503S28.853 0 18.588 0zm10.61 22.883c-.052 1.13-.233 1.903-.497 2.579a5.445 5.445 0 01-3.121 3.107c-.679.262-1.455.442-2.59.494-1.14.051-1.503.064-4.401.064-2.9 0-3.263-.013-4.401-.064-1.136-.052-1.912-.232-2.591-.494a5.233 5.233 0 01-1.89-1.226 5.205 5.205 0 01-1.232-1.881c-.264-.676-.444-1.448-.496-2.58-.052-1.132-.064-1.494-.064-4.38 0-2.885.012-3.247.064-4.38.052-1.13.232-1.903.496-2.579a5.202 5.202 0 011.231-1.882 5.23 5.23 0 011.89-1.225c.68-.263 1.455-.442 2.592-.494 1.138-.052 1.502-.064 4.4-.064 2.899 0 3.263.012 4.4.064 1.137.052 1.913.231 2.592.494a5.235 5.235 0 011.89 1.225 5.21 5.21 0 011.232 1.882c.264.676.444 1.448.496 2.58.052 1.132.064 1.494.064 4.38 0 2.885-.012 3.247-.064 4.38z" fill="currentColor"/></symbol><symbol viewBox="0 0 38 38" id="twitter"><path d="M19 0C8.736 0 .412 8.285.412 18.502.412 28.72 8.736 37.005 19 37.005c10.264 0 18.588-8.286 18.588-18.503S29.264 0 19 0zm8.487 14.426c.008.182.012.365.012.549 0 5.612-4.291 12.083-12.139 12.083-2.41 0-4.651-.703-6.54-1.908a8.586 8.586 0 006.317-1.76 4.269 4.269 0 01-3.986-2.948 4.264 4.264 0 001.927-.073 4.253 4.253 0 01-3.423-4.163v-.054c.576.318 1.233.51 1.933.53a4.237 4.237 0 01-1.32-5.669 12.132 12.132 0 008.794 4.437 4.223 4.223 0 01-.111-.968c0-2.344 1.91-4.246 4.267-4.246a4.27 4.27 0 013.114 1.341 8.582 8.582 0 002.71-1.03 4.267 4.267 0 01-1.877 2.349 8.54 8.54 0 002.45-.67 8.648 8.648 0 01-2.128 2.2z" fill="currentColor"/></symbol><symbol viewBox="0 0 38 38" id="facebook"><path d="M19.412 0C9.162 0 .823 8.3.823 18.502c0 10.202 8.34 18.503 18.589 18.503C29.66 37.005 38 28.704 38 18.502S29.662 0 19.412 0zm4.622 19.154H21.01v10.729h-4.48v-10.73h-2.131v-3.791h2.13v-2.453c0-1.757.839-4.502 4.523-4.502l3.32.013v3.681h-2.41c-.392 0-.95.195-.95 1.033v2.228h3.414l-.392 3.792z" fill="currentColor"/></symbol><symbol viewBox="0 0 28 26" id="arrow-prev"><path d="M7.047 11.333l8.94-8.94L13.631.037.667 13l12.964 12.963 2.356-2.356-8.94-8.94h20.287v-3.334H7.047z" fill="currentColor"/></symbol><symbol viewBox="0 0 28 26" id="arrow-next"><path d="M20.953 11.333l-8.94-8.94L14.369.037 27.333 13 14.369 25.963l-2.356-2.356 8.94-8.94H.666v-3.334h20.287z" fill="currentColor"/></symbol><symbol viewBox="0 0 19 19" id="popup-close"><path d="M9.5 7.438L16.718.219l2.062 2.062-7.218 7.22 7.218 7.218-2.062 2.062L9.5 11.562l-7.22 7.219-2.06-2.062L7.437 9.5.22 2.281 2.28.22 9.5 7.438z" fill="currentColor"/></symbol><symbol viewBox="0 0 33 32" id="btn-pdf"><path d="M26.125 5.333a.698.698 0 01-.486-.195.656.656 0 01-.201-.471v-4H11c-.365 0-.714.14-.972.39s-.403.59-.403.943v1.333h12.946l4.929 4.78v19.22h1.375c.365 0 .714-.14.972-.39s.403-.59.403-.943V5.333h-4.125z" fill="currentColor"/><path d="M22.688 8h2.75l-2.75-2.667V8z" fill="currentColor"/><path d="M21.313 8.666v-4H6.874c-.365 0-.714.141-.972.391S5.5 5.647 5.5 6v9.333h15.125c.73 0 1.429.281 1.945.781.515.5.805 1.179.805 1.886v8c0 .707-.29 1.385-.805 1.886-.516.5-1.216.78-1.945.78H5.5V30c0 .354.145.693.403.943s.607.39.972.39H24.75c.365 0 .714-.14.972-.39s.403-.59.403-.943V9.333H22a.698.698 0 01-.486-.195.656.656 0 01-.201-.472zm5.5-7.333V4h2.75l-2.75-2.667z" fill="currentColor"/><path d="M12.375 20h-.688v4h.688c.182 0 .357-.07.486-.195a.656.656 0 00.201-.472v-2.666a.656.656 0 00-.2-.472.698.698 0 00-.487-.195zm-5.5 0h-.688v1.333h.688c.182 0 .357-.07.486-.195a.657.657 0 00.202-.471.657.657 0 00-.202-.472.698.698 0 00-.486-.195z" fill="currentColor"/><path d="M22 26v-8c0-.354-.145-.693-.403-.943a1.397 1.397 0 00-.972-.39h-16.5c-.365 0-.714.14-.972.39s-.403.59-.403.943v8c0 .354.145.693.403.943s.607.39.972.39h16.5c.365 0 .714-.14.972-.39S22 26.353 22 26zM6.875 22.666h-.688v2a.657.657 0 01-.2.472.699.699 0 01-.973 0 .657.657 0 01-.202-.472v-5.333c0-.177.073-.346.202-.471a.698.698 0 01.486-.195h1.375c.547 0 1.072.21 1.458.585.387.375.604.884.604 1.415 0 .53-.217 1.039-.604 1.414a2.096 2.096 0 01-1.458.585zm7.563.667c0 .53-.218 1.04-.605 1.414a2.096 2.096 0 01-1.458.586H11a.699.699 0 01-.486-.195.656.656 0 01-.201-.472v-5.333c0-.177.072-.346.2-.471a.698.698 0 01.487-.195h1.375c.547 0 1.072.21 1.458.585.387.375.604.884.604 1.415v2.666zm4.812-2c.182 0 .357.07.486.195a.656.656 0 010 .943.698.698 0 01-.486.195h-2.063v2a.656.656 0 01-.2.472.699.699 0 01-.973 0 .656.656 0 01-.201-.472v-5.333c0-.177.072-.346.2-.471a.698.698 0 01.487-.195h2.75c.182 0 .357.07.486.195a.656.656 0 010 .943.699.699 0 01-.486.195h-2.063v1.333h2.063z" fill="currentColor"/></symbol><symbol viewBox="0 0 53 53" id="service-arrow"><circle cx="26.5" cy="26.5" r="26" stroke="currentColor"/><path d="M16.815 27.227a.5.5 0 010-.707l3.181-3.182a.5.5 0 11.708.707l-2.829 2.828 2.829 2.829a.5.5 0 11-.707.707l-3.182-3.182zm19.015.146H17.168v-1H35.83v1z" fill="currentColor"/></symbol></svg>