<svg xmlns="http://www.w3.org/2000/svg"><symbol viewBox="0 0 101 52" id="logo"><path d="M23.212 6.942H6.946v31.236H.006V48.51h13.66c2.806 0 5.042.842 7.16 3.486v-10.35c2.117-2.647 4.352-3.49 7.158-3.49h6.72l.002-31.215H23.212z" fill="#E42313"/><path d="M28.296 38.177l-1.856-5.526H15.254l-1.9 5.526H6.946L18.393 6.942h4.818l11.494 31.235h-6.409zm-7.337-22.023L16.98 27.516h7.825l-3.846-11.362z" fill="#fff"/><path d="M23.211 6.942L25.78 0H.005L0 38.236h6.953L6.946 6.942H23.21z" fill="#0F3A4C"/><path d="M48.486 6.942V.428h3.722v1.396h-2.233v5.118h-1.489zm7.793 0V1.824h-1.432l-.14 1.23c-.399 3.422-1.19 4.15-2.734 3.888L52 5.452c.252.047.408.028.631-.232.113-.14.206-.335.29-.585.175-.522.334-1.516.437-2.902l.093-1.302h4.316v6.513H56.28v-.002zm2.201 0L61.188.428h1.33l2.707 6.514h-1.591l-.539-1.37H60.52l-.539 1.37h-1.5zm3.33-4.606l-.735 1.841h1.46l-.725-1.841zM65.94.448a39.478 39.478 0 011.97-.056c1.479 0 2.187.651 2.187 1.618 0 .642-.253 1.127-.745 1.452v.02c.531.196.93.707.93 1.489 0 .66-.232 1.153-.687 1.498-.456.345-1.05.512-1.785.512-.864 0-1.489-.02-1.87-.056V.448zm1.488 1.376v1.183h.492c.455 0 .688-.213.688-.632 0-.372-.316-.585-.717-.585a3.584 3.584 0 00-.463.034zm0 2.485v1.22c.14.037.306.056.502.056.578 0 .864-.232.864-.688 0-.392-.26-.585-.79-.585h-.576v-.003zm3.14 2.633L73.276.428h1.33l2.707 6.514h-1.591l-.539-1.37h-2.578l-.538 1.37h-1.499zm3.33-4.606l-.735 1.841h1.46l-.725-1.841zm5.62 4.606h-1.489V.428c.113 0 .429 0 .94-.01.522-.01.874-.01 1.05-.01.921 0 1.592.206 2.01.615.42.4.625.921.625 1.545 0 .605-.223 1.127-.661 1.555-.438.419-1.023.632-1.748.632a7.27 7.27 0 01-.725-.027v2.214h-.002zm0-5.118v1.489c.232.027.465.046.678.046.475 0 .874-.232.874-.8 0-.502-.299-.755-.903-.755-.025.003-.24.01-.65.02zM88.842.428l-2.083 3.19 2.167 3.321h-1.748l-1.396-2.186-1.376 2.186h-1.748l2.167-3.32L82.76.429h1.748l1.322 2.093L87.097.428h1.745zm2.095 6.514h-1.302V.428h1.488v4.048L94.007.428h1.303v6.514h-1.49V2.894l-2.884 4.048zM96.656.448a39.485 39.485 0 011.971-.056c1.479 0 2.186.651 2.186 1.618 0 .642-.252 1.127-.744 1.452v.02c.531.196.93.707.93 1.489 0 .66-.232 1.153-.688 1.498-.455.345-1.05.512-1.784.512-.865 0-1.489-.02-1.87-.056V.448zm1.489 1.376v1.183h.492c.455 0 .688-.213.688-.632 0-.372-.316-.585-.718-.585-.08-.003-.24.007-.462.034zm0 2.485v1.22c.14.037.306.056.502.056.577 0 .864-.232.864-.688 0-.392-.26-.585-.79-.585h-.576v-.003zM48.486 15.757V9.244h1.499l2.01 2.745 1.897-2.745h1.405v6.513H53.81v-4.15l-1.814 2.539h-.213l-1.805-2.512v4.12h-1.49v.003zm8.7-5.657c.642-.641 1.479-.967 2.502-.967 1.014 0 1.841.306 2.483.921.651.615.977 1.432.977 2.446 0 .977-.326 1.785-.987 2.42-.651.631-1.479.95-2.475.95-1.014 0-1.841-.306-2.492-.921-.642-.615-.967-1.433-.967-2.446.002-.96.318-1.76.96-2.402zm1.173 3.806c.362.382.81.568 1.33.568.594 0 1.06-.186 1.385-.549.326-.372.492-.847.492-1.422 0-.586-.176-1.06-.538-1.423a1.827 1.827 0 00-1.34-.549c-.548 0-.996.187-1.349.549-.352.362-.53.837-.53 1.423.002.556.188 1.02.55 1.403zm10.999 1.209c-.196.223-.493.41-.884.549-.392.14-.8.206-1.237.206-1.013 0-1.833-.306-2.465-.921-.632-.624-.95-1.433-.95-2.446 0-.977.299-1.785.894-2.42.595-.631 1.432-.95 2.512-.95.827 0 1.581.28 1.99.679l-.66 1.116c-.44-.27-.885-.399-1.33-.399-.532 0-.967.176-1.313.522-.345.345-.511.827-.511 1.452 0 .578.186 1.05.548 1.422.362.363.838.549 1.423.549.521 0 .996-.16 1.415-.475l.568 1.116zm.8.642V9.244h1.489v2.838l2.13-2.838h1.784l-2.445 3.004 2.641 3.507H73.87l-2.223-3.098v3.098h-1.489v.002zm6.311-6.494a39.478 39.478 0 011.97-.056c1.48 0 2.187.651 2.187 1.619 0 .641-.252 1.126-.745 1.452v.02c.532.195.93.707.93 1.488 0 .661-.232 1.153-.687 1.499-.456.345-1.05.511-1.785.511-.864 0-1.488-.02-1.87-.056V9.263zm1.486 1.377v1.182h.492c.455 0 .688-.213.688-.631 0-.373-.316-.586-.718-.586a3.657 3.657 0 00-.462.034zm0 2.485v1.22c.14.036.306.056.502.056.578 0 .864-.233.864-.688 0-.392-.26-.586-.79-.586h-.576v-.002zm5.412-3.881v2.037c.206-.027.4-.037.578-.037 1.562 0 2.373.828 2.373 2.197 0 .707-.233 1.275-.708 1.701-.475.42-1.136.632-1.98.632-.253 0-.578 0-.987-.01-.4-.01-.661-.01-.764-.01V9.242h1.488v.003zm0 3.443v1.655c.223.027.373.037.439.037.624 0 .93-.3.93-.904 0-.558-.353-.838-.92-.838-.094.003-.243.023-.449.05zm3.582 3.07V9.244h1.489v6.513h-1.489z" fill="currentColor"/><path d="M25.779 0L23.21 6.942h11.496l-.002 31.216h-6.72c-2.806 0-5.044.842-7.159 3.489V52c2.118-2.647 4.353-3.49 7.159-3.49h13.66L41.649 0h-15.87z" fill="#B12009"/></symbol></svg>