<svg width="38" height="38" fill="none" xmlns="http://www.w3.org/2000/svg"><path d="M19 0C8.736 0 .412 8.285.412 18.502.412 28.72 8.736 37.005 19 37.005c10.264 0 18.588-8.286 18.588-18.503S29.264 0 19 0zm8.487 14.426c.008.182.012.365.012.549 0 5.612-4.291 12.083-12.139 12.083-2.41 0-4.651-.703-6.54-1.908a8.586 8.586 0 006.317-1.76 4.269 4.269 0 01-3.986-2.948 4.264 4.264 0 001.927-.073 4.253 4.253 0 01-3.423-4.163v-.054c.576.318 1.233.51 1.933.53a4.237 4.237 0 01-1.32-5.669 12.132 12.132 0 008.794 4.437 4.223 4.223 0 01-.111-.968c0-2.344 1.91-4.246 4.267-4.246a4.27 4.27 0 013.114 1.341 8.582 8.582 0 002.71-1.03 4.267 4.267 0 01-1.877 2.349 8.54 8.54 0 002.45-.67 8.648 8.648 0 01-2.128 2.2z" fill="#fff"/></svg>