<svg width="38" height="38" viewBox="0 0 38 38" fill="none" xmlns="http://www.w3.org/2000/svg">
<path d="M19.4117 0C9.16221 0 0.823486 8.30018 0.823486 18.5023C0.823486 28.7037 9.16221 37.0046 19.4117 37.0046C29.6605 37.0046 38 28.7037 38 18.5023C38 8.30018 29.662 0 19.4117 0ZM24.0344 19.1537H21.0103V29.8827H16.5291C16.5291 29.8827 16.5291 24.0204 16.5291 19.1537H14.3989V15.3617H16.5291V12.909C16.5291 11.1524 17.3677 8.4075 21.0515 8.4075L24.3721 8.42017V12.1011C24.3721 12.1011 22.3543 12.1011 21.9619 12.1011C21.5696 12.1011 21.0118 12.2964 21.0118 13.1341V15.3624H24.426L24.0344 19.1537Z" fill="white"/>
</svg>
