<svg width="150" height="150" viewBox="0 0 150 150" fill="none" xmlns="http://www.w3.org/2000/svg">
<path d="M80.1425 33.2183H45.0049V101.653V101.696H30.0117V116.915V124.35H59.5222C65.5829 124.35 70.4114 126.196 74.9861 131.994V109.302C79.5607 103.499 84.3892 101.653 90.45 101.653H104.967L104.973 33.2183H80.1425Z" fill="#E42313"/>
<path d="M91.1279 101.696L87.1191 89.5794H62.9554L58.8514 101.696H45.0059L69.7354 33.2183H80.1434L104.973 101.696H91.1279ZM75.2779 53.4136L66.6839 78.3222H83.5863L75.2779 53.4136Z" fill="white"/>
<path d="M80.1414 33.219L85.6891 18H30.0106L30 101.825H45.0197L45.0038 33.219H80.1414Z" fill="#0F3A4C"/>
<path d="M85.6872 18L80.1394 33.219H104.975L104.969 101.653H90.4522C84.3914 101.653 79.5576 103.5 74.9883 109.303V132C79.5629 126.197 84.3914 124.35 90.4522 124.35H119.963L119.968 18H85.6872Z" fill="#B12009"/>
</svg>
