<svg width="38" height="38" viewBox="0 0 38 38" fill="none" xmlns="http://www.w3.org/2000/svg">
<path d="M22.1461 18.5024C22.1461 20.4583 20.5532 22.0439 18.5882 22.0439C16.6232 22.0439 15.0303 20.4583 15.0303 18.5024C15.0303 16.5465 16.6232 14.9609 18.5882 14.9609C20.5532 14.9609 22.1461 16.5465 22.1461 18.5024Z" fill="white"/>
<path d="M26.9083 12.2365C26.7372 11.7752 26.4644 11.3577 26.1098 11.0149C25.7655 10.662 25.3463 10.3904 24.8826 10.2202C24.5065 10.0748 23.9415 9.90174 22.9008 9.85459C21.7751 9.80349 21.4375 9.79248 18.5876 9.79248C15.7374 9.79248 15.3998 9.80321 14.2744 9.85431C13.2337 9.90174 12.6684 10.0748 12.2926 10.2202C11.8289 10.3904 11.4094 10.662 11.0653 11.0149C10.7108 11.3577 10.4379 11.775 10.2666 12.2365C10.1205 12.6109 9.94668 13.1736 9.89931 14.2094C9.84798 15.3297 9.83691 15.6656 9.83691 18.5027C9.83691 21.3395 9.84798 21.6754 9.89931 22.796C9.94668 23.8318 10.1205 24.3942 10.2666 24.7686C10.4379 25.2302 10.7105 25.6474 11.065 25.9902C11.4094 26.3431 11.8286 26.6147 12.2923 26.7849C12.6684 26.9306 13.2337 27.1037 14.2744 27.1508C15.3998 27.2019 15.7371 27.2126 18.5873 27.2126C21.4378 27.2126 21.7754 27.2019 22.9005 27.1508C23.9412 27.1037 24.5065 26.9306 24.8826 26.7849C25.8134 26.4275 26.5492 25.6952 26.9083 24.7686C27.0543 24.3942 27.2282 23.8318 27.2759 22.796C27.3272 21.6754 27.338 21.3395 27.338 18.5027C27.338 15.6656 27.3272 15.3297 27.2759 14.2094C27.2285 13.1736 27.0546 12.6109 26.9083 12.2365ZM18.5876 23.958C15.5604 23.958 13.1064 21.5157 13.1064 18.5024C13.1064 15.4892 15.5604 13.0468 18.5876 13.0468C21.6145 13.0468 24.0685 15.4892 24.0685 18.5024C24.0685 21.5157 21.6145 23.958 18.5876 23.958ZM24.2852 14.1061C23.5778 14.1061 23.0043 13.5352 23.0043 12.8311C23.0043 12.127 23.5778 11.5562 24.2852 11.5562C24.9926 11.5562 25.5661 12.127 25.5661 12.8311C25.5658 13.5352 24.9926 14.1061 24.2852 14.1061Z" fill="white"/>
<path d="M18.5882 0C8.32381 0 0 8.28533 0 18.5023C0 28.7193 8.32381 37.0046 18.5882 37.0046C28.8527 37.0046 37.1765 28.7193 37.1765 18.5023C37.1765 8.28533 28.8527 0 18.5882 0ZM29.1976 22.8826C29.1459 24.0135 28.9653 24.7857 28.7015 25.4616C28.147 26.8887 27.0136 28.0169 25.5798 28.5688C24.9011 28.8314 24.1251 29.0109 22.9891 29.0626C21.8509 29.1143 21.4873 29.1267 18.5885 29.1267C15.6895 29.1267 15.3262 29.1143 14.1877 29.0626C13.0517 29.0109 12.2757 28.8314 11.5969 28.5688C10.8845 28.302 10.2395 27.8839 9.70624 27.3433C9.16336 26.8128 8.7433 26.1705 8.47527 25.4616C8.21149 24.786 8.03081 24.0135 7.97919 22.8828C7.92672 21.7496 7.91452 21.3877 7.91452 18.5023C7.91452 15.617 7.92672 15.255 7.97891 14.1221C8.03053 12.9911 8.21092 12.2189 8.4747 11.5431C8.74273 10.8341 9.16308 10.1919 9.70624 9.66137C10.2392 9.12072 10.8845 8.7026 11.5967 8.43581C12.2757 8.17325 13.0514 7.99369 14.1877 7.94202C15.3259 7.89036 15.6895 7.87794 18.5882 7.87794C21.487 7.87794 21.8506 7.89036 22.9888 7.94231C24.1251 7.99369 24.9008 8.17325 25.5798 8.43552C26.292 8.70232 26.9373 9.12072 27.4705 9.66137C28.0134 10.1921 28.4337 10.8341 28.7015 11.5431C28.9656 12.2189 29.1459 12.9911 29.1978 14.1221C29.2498 15.255 29.2619 15.617 29.2619 18.5023C29.2619 21.3877 29.2498 21.7496 29.1976 22.8826Z" fill="white"/>
</svg>
