<svg xmlns="http://www.w3.org/2000/svg">
    <symbol viewBox="0 0 101 52" id="logo">
        <path d="M23.2122 6.94189H6.94647V38.1576V38.1772H0.00585938V45.1191V48.5105H13.6668C16.4724 48.5105 18.7076 49.3529 20.8253 51.9975V41.6469C22.9429 38.9999 25.1781 38.1576 27.9838 38.1576H34.704L34.7065 6.94189H23.2122Z"
              fill="#E42313"/>
        <path d="M28.296 38.1772L26.4402 32.6505H15.2545L13.3547 38.1772H6.94531L18.393 6.94189H23.2111L34.7053 38.1772H28.296ZM20.9587 16.1538L16.9804 27.5156H24.8048L20.9587 16.1538Z"
              fill="white"/>
        <path d="M23.2113 6.94199L25.7794 0H0.00489638L0 38.236H6.95285L6.94551 6.94199H23.2113Z" fill="#0F3A4C"/>
        <path d="M48.4863 6.94169V0.428223H52.2076V1.82397H49.9748V6.94169H48.4863Z" fill="currentColor"/>
        <path d="M56.279 6.94168V1.82396H54.8468L54.7073 3.05319C54.3082 6.47643 53.5175 7.20369 51.9727 6.94168L51.9996 5.45289C52.2518 5.49941 52.4084 5.47983 52.6312 5.22027C52.7438 5.08069 52.8369 4.8848 52.9201 4.63503C53.0964 4.11347 53.2555 3.11931 53.3583 1.73336L53.4514 0.430664H57.7675V6.94413H56.279V6.94168Z"
              fill="currentColor"/>
        <path d="M58.4805 6.94169L61.1882 0.428223H62.5175L65.2252 6.94169H63.6339L63.0953 5.57288H60.5198L59.9812 6.94169H58.4805ZM61.81 2.33574L61.0755 4.17714H62.5347L61.81 2.33574Z"
              fill="currentColor"/>
        <path d="M65.9395 0.447921C66.6641 0.411191 67.3251 0.391602 67.9103 0.391602C69.389 0.391602 70.0965 1.04295 70.0965 2.01017C70.0965 2.65173 69.8443 3.13656 69.3522 3.46224V3.48183C69.8835 3.67772 70.2825 4.18949 70.2825 4.97062C70.2825 5.63176 70.05 6.12394 69.5946 6.46921C69.1392 6.81447 68.5443 6.98098 67.8099 6.98098C66.9457 6.98098 66.3214 6.96139 65.9395 6.92466V0.447921ZM67.428 1.82407V3.00678H67.92C68.3754 3.00678 68.608 2.79375 68.608 2.37503C68.608 2.00283 68.2922 1.78979 67.8907 1.78979C67.8074 1.78734 67.6507 1.79714 67.428 1.82407ZM67.428 4.30948V5.52892C67.5675 5.56565 67.734 5.58524 67.9298 5.58524C68.5076 5.58524 68.794 5.35261 68.794 4.89716C68.794 4.50537 68.5345 4.31193 68.0033 4.31193H67.428V4.30948Z"
              fill="currentColor"/>
        <path d="M70.5684 6.94169L73.2761 0.428223H74.6054L77.3131 6.94169H75.7218L75.1832 5.57288H72.6053L72.0667 6.94169H70.5684ZM73.8979 2.33574L73.1634 4.17714H74.6226L73.8979 2.33574Z"
              fill="currentColor"/>
        <path d="M79.5178 6.94175H78.0293V0.428281C78.1419 0.428281 78.4577 0.428281 78.9694 0.418486C79.4909 0.408691 79.8434 0.408691 80.0197 0.408691C80.9402 0.408691 81.611 0.61438 82.0296 1.02331C82.4483 1.42244 82.6539 1.94401 82.6539 2.56842C82.6539 3.17324 82.4311 3.69481 81.9929 4.12333C81.5547 4.54205 80.9696 4.75508 80.2449 4.75508C79.9193 4.75508 79.6769 4.74529 79.5202 4.72815V6.94175H79.5178ZM79.5178 1.82402V3.31282C79.7504 3.33975 79.983 3.35934 80.1959 3.35934C80.6709 3.35934 81.07 3.12672 81.07 2.55863C81.07 2.05665 80.7713 1.80443 80.1666 1.80443C80.1421 1.80688 79.9266 1.81423 79.5178 1.82402Z"
              fill="currentColor"/>
        <path d="M88.8423 0.428223L86.7589 3.61884L88.9256 6.93924H87.1776L85.7821 4.75258L84.4062 6.93924H82.6582L84.8249 3.61884L82.761 0.428223H84.509L85.8311 2.52184L87.0968 0.428223H88.8423Z"
              fill="currentColor"/>
        <path d="M90.9372 6.94169H89.6348V0.428223H91.1233V4.47588L94.0072 0.428223H95.3097V6.94169H93.8212V2.89404L90.9372 6.94169Z"
              fill="currentColor"/>
        <path d="M96.6562 0.447921C97.3809 0.411191 98.0419 0.391602 98.627 0.391602C100.106 0.391602 100.813 1.04295 100.813 2.01017C100.813 2.65173 100.561 3.13656 100.069 3.46224V3.48183C100.6 3.67772 100.999 4.18949 100.999 4.97062C100.999 5.63176 100.767 6.12394 100.311 6.46921C99.856 6.81447 99.2611 6.98098 98.5267 6.98098C97.6625 6.98098 97.0382 6.96139 96.6562 6.92466V0.447921ZM98.1448 1.82407V3.00678H98.6368C99.0922 3.00678 99.3248 2.79375 99.3248 2.37503C99.3248 2.00283 99.009 1.78979 98.6075 1.78979C98.5267 1.78734 98.3675 1.79714 98.1448 1.82407ZM98.1448 4.30948V5.52892C98.2843 5.56565 98.4508 5.58524 98.6466 5.58524C99.2244 5.58524 99.5108 5.35261 99.5108 4.89716C99.5108 4.50537 99.2513 4.31193 98.7201 4.31193H98.1448V4.30948Z"
              fill="currentColor"/>
        <path d="M48.4863 15.7571V9.24365H49.9846L51.9946 11.9886L53.8919 9.24365H55.2972V15.7571H53.8087V11.6066L51.9946 14.1459H51.7816L49.9773 11.6336V15.7547H48.4863V15.7571Z"
              fill="currentColor"/>
        <path d="M57.1863 10.1005C57.8277 9.45897 58.665 9.1333 59.6883 9.1333C60.7019 9.1333 61.5293 9.43939 62.1708 10.054C62.822 10.6686 63.1476 11.4865 63.1476 12.5002C63.1476 13.4772 62.822 14.2853 62.161 14.9195C61.5098 15.5513 60.6823 15.8696 59.6859 15.8696C58.6723 15.8696 57.8448 15.5635 57.1936 14.9489C56.5522 14.3343 56.2266 13.5164 56.2266 12.5027C56.229 11.5428 56.5448 10.7421 57.1863 10.1005ZM58.3589 13.9058C58.7213 14.2878 59.1693 14.4739 59.6883 14.4739C60.2832 14.4739 60.7484 14.2878 61.074 13.9254C61.3996 13.5532 61.5661 13.0781 61.5661 12.5027C61.5661 11.9174 61.3898 11.4424 61.0275 11.08C60.6651 10.7176 60.2171 10.5315 59.6883 10.5315C59.1399 10.5315 58.6919 10.7176 58.3394 11.08C57.9868 11.4424 57.8081 11.9174 57.8081 12.5027C57.8105 13.0585 57.9966 13.5238 58.3589 13.9058Z"
              fill="currentColor"/>
        <path d="M69.3576 15.1154C69.1618 15.3382 68.8655 15.5243 68.4738 15.6639C68.0821 15.8035 67.6733 15.8696 67.2375 15.8696C66.2239 15.8696 65.4038 15.5635 64.7722 14.9489C64.1405 14.3245 63.8223 13.5164 63.8223 12.5027C63.8223 11.5257 64.1209 10.7176 64.7159 10.0834C65.3108 9.45163 66.148 9.1333 67.2277 9.1333C68.0552 9.1333 68.8092 9.41245 69.2181 9.81158L68.5571 10.9282C68.1188 10.6588 67.6733 10.529 67.2277 10.529C66.6964 10.529 66.2607 10.7053 65.9155 11.0506C65.5703 11.3959 65.4038 11.8783 65.4038 12.5027C65.4038 13.0806 65.5899 13.5532 65.9522 13.9254C66.3145 14.2878 66.7895 14.4739 67.3746 14.4739C67.8961 14.4739 68.371 14.3147 68.7896 13.9988L69.3576 15.1154Z"
              fill="currentColor"/>
        <path d="M70.1582 15.7571V9.24365H71.6467V12.0817L73.7766 9.24365H75.5614L73.1156 12.2482L75.7572 15.7547H73.8697L71.6467 12.6571V15.7547H70.1582V15.7571Z"
              fill="currentColor"/>
        <path d="M76.4688 9.26335C77.1934 9.22662 77.8544 9.20703 78.4395 9.20703C79.9182 9.20703 80.6258 9.85838 80.6258 10.8256C80.6258 11.4672 80.3736 11.952 79.8815 12.2777V12.2973C80.4128 12.4932 80.8118 13.0049 80.8118 13.786C80.8118 14.4472 80.5793 14.9394 80.1239 15.2846C79.6685 15.6299 79.0736 15.7964 78.3392 15.7964C77.475 15.7964 76.8507 15.7768 76.4688 15.7401V9.26335ZM77.9548 10.6395V11.8222H78.4469C78.9022 11.8222 79.1348 11.6092 79.1348 11.1905C79.1348 10.8183 78.819 10.6052 78.4175 10.6052C78.3367 10.6028 78.18 10.6126 77.9548 10.6395ZM77.9548 13.1249V14.3443C78.0943 14.3811 78.2608 14.4007 78.4567 14.4007C79.0345 14.4007 79.3209 14.168 79.3209 13.7126C79.3209 13.3208 79.0614 13.1274 78.5301 13.1274H77.9548V13.1249Z"
              fill="currentColor"/>
        <path d="M83.3674 9.24366V11.281C83.573 11.254 83.7665 11.2442 83.9452 11.2442C85.5071 11.2442 86.3175 12.0719 86.3175 13.4407C86.3175 14.1484 86.0849 14.7164 85.6099 15.1425C85.135 15.5612 84.474 15.7743 83.6294 15.7743C83.3772 15.7743 83.0516 15.7743 82.6427 15.7645C82.2437 15.7547 81.9817 15.7547 81.8789 15.7547V9.24121H83.3674V9.24366ZM83.3674 12.6865V14.3418C83.5902 14.3687 83.7395 14.3785 83.8056 14.3785C84.4299 14.3785 84.7359 14.0798 84.7359 13.475C84.7359 12.9167 84.3834 12.6375 83.8154 12.6375C83.7224 12.64 83.573 12.6596 83.3674 12.6865ZM86.9491 15.7571V9.24366H88.4376V15.7571H86.9491Z"
              fill="currentColor"/>
        <path d="M25.7789 0L23.2107 6.94199H34.7074L34.7049 38.1577H27.9847C25.179 38.1577 22.9414 39 20.8262 41.647V52C22.9439 49.353 25.179 48.5106 27.9847 48.5106H41.6456L41.648 0H25.7789Z"
              fill="#B12009"/>
    </symbol>
    <symbol viewBox="0 0 19 19" id="faq-arrow">
        <path d="M16.3087 0.534441L3.79936 13.0437L3.79936 1.06705L0.599845 1.06705L0.599847 18.506L18.0388 18.506L18.0388 15.3065L6.0621 15.3065L18.5714 2.79718L16.3087 0.534441Z"
              fill="currentColor"/>

    </symbol>
    <symbol viewBox="0 0 15 15" id="works-arrow">
        <path d="M2.50566 14.9936L12.4089 5.09038L12.4089 14.5719L14.9418 14.5719L14.9418 0.76609L1.13597 0.766089L1.13597 3.29904L10.6175 3.29904L0.714321 13.2022L2.50566 14.9936Z"
              fill="currentColor"/>
    </symbol>
    <symbol viewBox="0 0 38 38" id="instagram">
        <path d="M22.1461 18.5024C22.1461 20.4583 20.5532 22.0439 18.5882 22.0439C16.6232 22.0439 15.0303 20.4583 15.0303 18.5024C15.0303 16.5465 16.6232 14.9609 18.5882 14.9609C20.5532 14.9609 22.1461 16.5465 22.1461 18.5024Z"
              fill="currentColor"/>
        <path d="M26.9083 12.2365C26.7372 11.7752 26.4644 11.3577 26.1098 11.0149C25.7655 10.662 25.3463 10.3904 24.8826 10.2202C24.5065 10.0748 23.9415 9.90174 22.9008 9.85459C21.7751 9.80349 21.4375 9.79248 18.5876 9.79248C15.7374 9.79248 15.3998 9.80321 14.2744 9.85431C13.2337 9.90174 12.6684 10.0748 12.2926 10.2202C11.8289 10.3904 11.4094 10.662 11.0653 11.0149C10.7108 11.3577 10.4379 11.775 10.2666 12.2365C10.1205 12.6109 9.94668 13.1736 9.89931 14.2094C9.84798 15.3297 9.83691 15.6656 9.83691 18.5027C9.83691 21.3395 9.84798 21.6754 9.89931 22.796C9.94668 23.8318 10.1205 24.3942 10.2666 24.7686C10.4379 25.2302 10.7105 25.6474 11.065 25.9902C11.4094 26.3431 11.8286 26.6147 12.2923 26.7849C12.6684 26.9306 13.2337 27.1037 14.2744 27.1508C15.3998 27.2019 15.7371 27.2126 18.5873 27.2126C21.4378 27.2126 21.7754 27.2019 22.9005 27.1508C23.9412 27.1037 24.5065 26.9306 24.8826 26.7849C25.8134 26.4275 26.5492 25.6952 26.9083 24.7686C27.0543 24.3942 27.2282 23.8318 27.2759 22.796C27.3272 21.6754 27.338 21.3395 27.338 18.5027C27.338 15.6656 27.3272 15.3297 27.2759 14.2094C27.2285 13.1736 27.0546 12.6109 26.9083 12.2365ZM18.5876 23.958C15.5604 23.958 13.1064 21.5157 13.1064 18.5024C13.1064 15.4892 15.5604 13.0468 18.5876 13.0468C21.6145 13.0468 24.0685 15.4892 24.0685 18.5024C24.0685 21.5157 21.6145 23.958 18.5876 23.958ZM24.2852 14.1061C23.5778 14.1061 23.0043 13.5352 23.0043 12.8311C23.0043 12.127 23.5778 11.5562 24.2852 11.5562C24.9926 11.5562 25.5661 12.127 25.5661 12.8311C25.5658 13.5352 24.9926 14.1061 24.2852 14.1061Z"
              fill="currentColor"/>
        <path d="M18.5882 0C8.32381 0 0 8.28533 0 18.5023C0 28.7193 8.32381 37.0046 18.5882 37.0046C28.8527 37.0046 37.1765 28.7193 37.1765 18.5023C37.1765 8.28533 28.8527 0 18.5882 0ZM29.1976 22.8826C29.1459 24.0135 28.9653 24.7857 28.7015 25.4616C28.147 26.8887 27.0136 28.0169 25.5798 28.5688C24.9011 28.8314 24.1251 29.0109 22.9891 29.0626C21.8509 29.1143 21.4873 29.1267 18.5885 29.1267C15.6895 29.1267 15.3262 29.1143 14.1877 29.0626C13.0517 29.0109 12.2757 28.8314 11.5969 28.5688C10.8845 28.302 10.2395 27.8839 9.70624 27.3433C9.16336 26.8128 8.7433 26.1705 8.47527 25.4616C8.21149 24.786 8.03081 24.0135 7.97919 22.8828C7.92672 21.7496 7.91452 21.3877 7.91452 18.5023C7.91452 15.617 7.92672 15.255 7.97891 14.1221C8.03053 12.9911 8.21092 12.2189 8.4747 11.5431C8.74273 10.8341 9.16308 10.1919 9.70624 9.66137C10.2392 9.12072 10.8845 8.7026 11.5967 8.43581C12.2757 8.17325 13.0514 7.99369 14.1877 7.94202C15.3259 7.89036 15.6895 7.87794 18.5882 7.87794C21.487 7.87794 21.8506 7.89036 22.9888 7.94231C24.1251 7.99369 24.9008 8.17325 25.5798 8.43552C26.292 8.70232 26.9373 9.12072 27.4705 9.66137C28.0134 10.1921 28.4337 10.8341 28.7015 11.5431C28.9656 12.2189 29.1459 12.9911 29.1978 14.1221C29.2498 15.255 29.2619 15.617 29.2619 18.5023C29.2619 21.3877 29.2498 21.7496 29.1976 22.8826Z"
              fill="currentColor"/>
    </symbol>
    <symbol viewBox="0 0 38 38" id="twitter">
        <path d="M19 0C8.73555 0 0.411743 8.28533 0.411743 18.5023C0.411743 28.7193 8.73555 37.0046 19 37.0046C29.2644 37.0046 37.5882 28.7193 37.5882 18.5023C37.5882 8.28533 29.2644 0 19 0ZM27.4872 14.4261C27.4954 14.6082 27.4994 14.7912 27.4994 14.975C27.4994 20.5867 23.208 27.0578 15.3601 27.0581H15.3604H15.3601C12.9506 27.0581 10.7085 26.3551 8.82036 25.1504C9.15419 25.1897 9.49399 25.2092 9.83803 25.2092C11.8371 25.2092 13.6767 24.5305 15.1372 23.3913C13.2694 23.3569 11.6947 22.129 11.1513 20.4416C11.4114 20.4913 11.6788 20.5184 11.9531 20.5184C12.3425 20.5184 12.7198 20.4662 13.0783 20.3687C11.126 19.9797 9.65537 18.2623 9.65537 16.2059C9.65537 16.1867 9.65537 16.1695 9.65594 16.1517C10.2309 16.4699 10.8883 16.6613 11.5883 16.6827C10.4427 15.9219 9.68969 14.6212 9.68969 13.1478C9.68969 12.3697 9.901 11.6407 10.2675 11.0131C12.3715 13.5828 15.5158 15.2728 19.0618 15.4504C18.9886 15.1393 18.9509 14.8152 18.9509 14.482C18.9509 12.1376 20.8618 10.2356 23.2179 10.2356C24.4452 10.2356 25.5536 10.752 26.3322 11.5775C27.3042 11.3866 28.2169 11.0332 29.0415 10.5467C28.7224 11.538 28.0462 12.3697 27.1652 12.8957C28.0283 12.7929 28.8509 12.5651 29.6153 12.2268C29.0443 13.0786 28.3202 13.8268 27.4872 14.4261Z"
              fill="currentColor"/>
    </symbol>
    <symbol viewBox="0 0 38 38" id="facebook">
        <path d="M19.4117 0C9.16221 0 0.823486 8.30018 0.823486 18.5023C0.823486 28.7037 9.16221 37.0046 19.4117 37.0046C29.6605 37.0046 38 28.7037 38 18.5023C38 8.30018 29.662 0 19.4117 0ZM24.0344 19.1537H21.0103V29.8827H16.5291C16.5291 29.8827 16.5291 24.0204 16.5291 19.1537H14.3989V15.3617H16.5291V12.909C16.5291 11.1524 17.3677 8.4075 21.0515 8.4075L24.3721 8.42017V12.1011C24.3721 12.1011 22.3543 12.1011 21.9619 12.1011C21.5696 12.1011 21.0118 12.2964 21.0118 13.1341V15.3624H24.426L24.0344 19.1537Z"
              fill="currentColor"/>
    </symbol>
    <symbol viewBox="0 0 28 26" id="arrow-prev">
        <path d="M7.04732 11.3333L15.9873 2.39329L13.6307 0.0366211L0.66732 13L13.6307 25.9633L15.9873 23.6066L7.04732 14.6666H27.334V11.3333H7.04732Z"
              fill="currentColor"/>
    </symbol>
    <symbol viewBox="0 0 28 26" id="arrow-next">
        <path d="M20.9527 11.3333L12.0127 2.39329L14.3693 0.0366211L27.3327 13L14.3693 25.9633L12.0127 23.6066L20.9527 14.6666H0.666016V11.3333H20.9527Z"
              fill="currentColor"/>
    </symbol>
    <symbol viewBox="0 0 19 19" id="popup-close">
        <path d="M9.49958 7.43799L16.7183 0.219238L18.7804 2.28132L11.5617 9.50007L18.7804 16.7188L16.7183 18.7809L9.49958 11.5622L2.28083 18.7809L0.21875 16.7188L7.4375 9.50007L0.21875 2.28132L2.28083 0.219238L9.49958 7.43799Z"
              fill="currentColor"/>
    </symbol>
    <symbol viewBox="0 0 33 32" id="btn-pdf">
        <path d="M26.125 5.33317C25.9427 5.33317 25.7678 5.26293 25.6389 5.13791C25.5099 5.01288 25.4375 4.84331 25.4375 4.6665V0.666504H11C10.6353 0.666504 10.2856 0.80698 10.0277 1.05703C9.76987 1.30708 9.625 1.64622 9.625 1.99984V3.33317H22.5706L27.5 8.11317V27.3332H28.875C29.2397 27.3332 29.5894 27.1927 29.8473 26.9426C30.1051 26.6926 30.25 26.3535 30.25 25.9998V5.33317H26.125Z" fill="currentColor"/>
        <path d="M22.6875 7.99967H25.4375L22.6875 5.33301V7.99967Z" fill="currentColor"/>
        <path d="M21.3125 8.6665V4.6665H6.875C6.51033 4.6665 6.16059 4.80698 5.90273 5.05703C5.64487 5.30708 5.5 5.64622 5.5 5.99984V15.3332H20.625C21.3543 15.3332 22.0538 15.6141 22.5695 16.1142C23.0853 16.6143 23.375 17.2926 23.375 17.9998V25.9998C23.375 26.7071 23.0853 27.3854 22.5695 27.8855C22.0538 28.3856 21.3543 28.6665 20.625 28.6665H5.5V29.9998C5.5 30.3535 5.64487 30.6926 5.90273 30.9426C6.16059 31.1927 6.51033 31.3332 6.875 31.3332H24.75C25.1147 31.3332 25.4644 31.1927 25.7223 30.9426C25.9801 30.6926 26.125 30.3535 26.125 29.9998V9.33317H22C21.8177 9.33317 21.6428 9.26293 21.5139 9.13791C21.3849 9.01288 21.3125 8.84332 21.3125 8.6665Z" fill="currentColor"/>
        <path d="M26.8125 1.33301V3.99967H29.5625L26.8125 1.33301Z" fill="currentColor"/>
        <path d="M12.375 20H11.6875V24H12.375C12.5573 24 12.7322 23.9298 12.8611 23.8047C12.9901 23.6797 13.0625 23.5101 13.0625 23.3333V20.6667C13.0625 20.4899 12.9901 20.3203 12.8611 20.1953C12.7322 20.0702 12.5573 20 12.375 20Z" fill="currentColor"/>
        <path d="M6.875 20H6.1875V21.3333H6.875C7.05734 21.3333 7.2322 21.2631 7.36114 21.1381C7.49007 21.013 7.5625 20.8435 7.5625 20.6667C7.5625 20.4899 7.49007 20.3203 7.36114 20.1953C7.2322 20.0702 7.05734 20 6.875 20Z" fill="currentColor"/>
        <path d="M22 25.9998V17.9998C22 17.6462 21.8551 17.3071 21.5973 17.057C21.3394 16.807 20.9897 16.6665 20.625 16.6665H4.125C3.76033 16.6665 3.41059 16.807 3.15273 17.057C2.89487 17.3071 2.75 17.6462 2.75 17.9998V25.9998C2.75 26.3535 2.89487 26.6926 3.15273 26.9426C3.41059 27.1927 3.76033 27.3332 4.125 27.3332H20.625C20.9897 27.3332 21.3394 27.1927 21.5973 26.9426C21.8551 26.6926 22 26.3535 22 25.9998ZM6.875 22.6665H6.1875V24.6665C6.1875 24.8433 6.11507 25.0129 5.98614 25.1379C5.8572 25.2629 5.68234 25.3332 5.5 25.3332C5.31766 25.3332 5.1428 25.2629 5.01386 25.1379C4.88493 25.0129 4.8125 24.8433 4.8125 24.6665V19.3332C4.8125 19.1564 4.88493 18.9868 5.01386 18.8618C5.1428 18.7367 5.31766 18.6665 5.5 18.6665H6.875C7.42201 18.6665 7.94661 18.8772 8.33341 19.2523C8.7202 19.6274 8.9375 20.1361 8.9375 20.6665C8.9375 21.1969 8.7202 21.7056 8.33341 22.0807C7.94661 22.4558 7.42201 22.6665 6.875 22.6665ZM14.4375 23.3332C14.4375 23.8636 14.2202 24.3723 13.8334 24.7474C13.4466 25.1225 12.922 25.3332 12.375 25.3332H11C10.8177 25.3332 10.6428 25.2629 10.5139 25.1379C10.3849 25.0129 10.3125 24.8433 10.3125 24.6665V19.3332C10.3125 19.1564 10.3849 18.9868 10.5139 18.8618C10.6428 18.7367 10.8177 18.6665 11 18.6665H12.375C12.922 18.6665 13.4466 18.8772 13.8334 19.2523C14.2202 19.6274 14.4375 20.1361 14.4375 20.6665V23.3332ZM19.25 21.3332C19.4323 21.3332 19.6072 21.4034 19.7361 21.5284C19.8651 21.6535 19.9375 21.823 19.9375 21.9998C19.9375 22.1766 19.8651 22.3462 19.7361 22.4712C19.6072 22.5963 19.4323 22.6665 19.25 22.6665H17.1875V24.6665C17.1875 24.8433 17.1151 25.0129 16.9861 25.1379C16.8572 25.2629 16.6823 25.3332 16.5 25.3332C16.3177 25.3332 16.1428 25.2629 16.0139 25.1379C15.8849 25.0129 15.8125 24.8433 15.8125 24.6665V19.3332C15.8125 19.1564 15.8849 18.9868 16.0139 18.8618C16.1428 18.7367 16.3177 18.6665 16.5 18.6665H19.25C19.4323 18.6665 19.6072 18.7367 19.7361 18.8618C19.8651 18.9868 19.9375 19.1564 19.9375 19.3332C19.9375 19.51 19.8651 19.6796 19.7361 19.8046C19.6072 19.9296 19.4323 19.9998 19.25 19.9998H17.1875V21.3332H19.25Z" fill="currentColor"/>
    </symbol>
    <symbol  viewBox="0 0 53 53" id="service-arrow">
        <circle cx="26.5" cy="26.5" r="26" stroke="currentColor"/>
        <path d="M16.8146 27.2268C16.6193 27.0316 16.6193 26.715 16.8146 26.5197L19.9965 23.3378C20.1918 23.1425 20.5084 23.1425 20.7036 23.3378C20.8989 23.533 20.8989 23.8496 20.7036 24.0449L17.8752 26.8733L20.7036 29.7017C20.8989 29.897 20.8989 30.2136 20.7036 30.4088C20.5084 30.6041 20.1918 30.6041 19.9965 30.4088L16.8146 27.2268ZM35.8301 27.3733H17.1681V26.3733H35.8301V27.3733Z" fill="currentColor"/>
    </symbol>
</svg>