<svg xmlns="http://www.w3.org/2000/svg">
    <symbol viewBox="0 0 101 52" id="logo">
        <path d="M23.2122 6.94189H6.94647V38.1576V38.1772H0.00585938V45.1191V48.5105H13.6668C16.4724 48.5105 18.7076 49.3529 20.8253 51.9975V41.6469C22.9429 38.9999 25.1781 38.1576 27.9838 38.1576H34.704L34.7065 6.94189H23.2122Z" fill="#E42313"/>
        <path d="M28.296 38.1772L26.4402 32.6505H15.2545L13.3547 38.1772H6.94531L18.393 6.94189H23.2111L34.7053 38.1772H28.296ZM20.9587 16.1538L16.9804 27.5156H24.8048L20.9587 16.1538Z" fill="white"/>
        <path d="M23.2113 6.94199L25.7794 0H0.00489638L0 38.236H6.95285L6.94551 6.94199H23.2113Z" fill="#0F3A4C"/>
        <path d="M48.4863 6.94169V0.428223H52.2076V1.82397H49.9748V6.94169H48.4863Z" fill="currentColor"/>
        <path d="M56.279 6.94168V1.82396H54.8468L54.7073 3.05319C54.3082 6.47643 53.5175 7.20369 51.9727 6.94168L51.9996 5.45289C52.2518 5.49941 52.4084 5.47983 52.6312 5.22027C52.7438 5.08069 52.8369 4.8848 52.9201 4.63503C53.0964 4.11347 53.2555 3.11931 53.3583 1.73336L53.4514 0.430664H57.7675V6.94413H56.279V6.94168Z" fill="currentColor"/>
        <path d="M58.4805 6.94169L61.1882 0.428223H62.5175L65.2252 6.94169H63.6339L63.0953 5.57288H60.5198L59.9812 6.94169H58.4805ZM61.81 2.33574L61.0755 4.17714H62.5347L61.81 2.33574Z" fill="currentColor"/>
        <path d="M65.9395 0.447921C66.6641 0.411191 67.3251 0.391602 67.9103 0.391602C69.389 0.391602 70.0965 1.04295 70.0965 2.01017C70.0965 2.65173 69.8443 3.13656 69.3522 3.46224V3.48183C69.8835 3.67772 70.2825 4.18949 70.2825 4.97062C70.2825 5.63176 70.05 6.12394 69.5946 6.46921C69.1392 6.81447 68.5443 6.98098 67.8099 6.98098C66.9457 6.98098 66.3214 6.96139 65.9395 6.92466V0.447921ZM67.428 1.82407V3.00678H67.92C68.3754 3.00678 68.608 2.79375 68.608 2.37503C68.608 2.00283 68.2922 1.78979 67.8907 1.78979C67.8074 1.78734 67.6507 1.79714 67.428 1.82407ZM67.428 4.30948V5.52892C67.5675 5.56565 67.734 5.58524 67.9298 5.58524C68.5076 5.58524 68.794 5.35261 68.794 4.89716C68.794 4.50537 68.5345 4.31193 68.0033 4.31193H67.428V4.30948Z" fill="currentColor"/>
        <path d="M70.5684 6.94169L73.2761 0.428223H74.6054L77.3131 6.94169H75.7218L75.1832 5.57288H72.6053L72.0667 6.94169H70.5684ZM73.8979 2.33574L73.1634 4.17714H74.6226L73.8979 2.33574Z" fill="currentColor"/>
        <path d="M79.5178 6.94175H78.0293V0.428281C78.1419 0.428281 78.4577 0.428281 78.9694 0.418486C79.4909 0.408691 79.8434 0.408691 80.0197 0.408691C80.9402 0.408691 81.611 0.61438 82.0296 1.02331C82.4483 1.42244 82.6539 1.94401 82.6539 2.56842C82.6539 3.17324 82.4311 3.69481 81.9929 4.12333C81.5547 4.54205 80.9696 4.75508 80.2449 4.75508C79.9193 4.75508 79.6769 4.74529 79.5202 4.72815V6.94175H79.5178ZM79.5178 1.82402V3.31282C79.7504 3.33975 79.983 3.35934 80.1959 3.35934C80.6709 3.35934 81.07 3.12672 81.07 2.55863C81.07 2.05665 80.7713 1.80443 80.1666 1.80443C80.1421 1.80688 79.9266 1.81423 79.5178 1.82402Z" fill="currentColor"/>
        <path d="M88.8423 0.428223L86.7589 3.61884L88.9256 6.93924H87.1776L85.7821 4.75258L84.4062 6.93924H82.6582L84.8249 3.61884L82.761 0.428223H84.509L85.8311 2.52184L87.0968 0.428223H88.8423Z" fill="currentColor"/>
        <path d="M90.9372 6.94169H89.6348V0.428223H91.1233V4.47588L94.0072 0.428223H95.3097V6.94169H93.8212V2.89404L90.9372 6.94169Z" fill="currentColor"/>
        <path d="M96.6562 0.447921C97.3809 0.411191 98.0419 0.391602 98.627 0.391602C100.106 0.391602 100.813 1.04295 100.813 2.01017C100.813 2.65173 100.561 3.13656 100.069 3.46224V3.48183C100.6 3.67772 100.999 4.18949 100.999 4.97062C100.999 5.63176 100.767 6.12394 100.311 6.46921C99.856 6.81447 99.2611 6.98098 98.5267 6.98098C97.6625 6.98098 97.0382 6.96139 96.6562 6.92466V0.447921ZM98.1448 1.82407V3.00678H98.6368C99.0922 3.00678 99.3248 2.79375 99.3248 2.37503C99.3248 2.00283 99.009 1.78979 98.6075 1.78979C98.5267 1.78734 98.3675 1.79714 98.1448 1.82407ZM98.1448 4.30948V5.52892C98.2843 5.56565 98.4508 5.58524 98.6466 5.58524C99.2244 5.58524 99.5108 5.35261 99.5108 4.89716C99.5108 4.50537 99.2513 4.31193 98.7201 4.31193H98.1448V4.30948Z" fill="currentColor"/>
        <path d="M48.4863 15.7571V9.24365H49.9846L51.9946 11.9886L53.8919 9.24365H55.2972V15.7571H53.8087V11.6066L51.9946 14.1459H51.7816L49.9773 11.6336V15.7547H48.4863V15.7571Z" fill="currentColor"/>
        <path d="M57.1863 10.1005C57.8277 9.45897 58.665 9.1333 59.6883 9.1333C60.7019 9.1333 61.5293 9.43939 62.1708 10.054C62.822 10.6686 63.1476 11.4865 63.1476 12.5002C63.1476 13.4772 62.822 14.2853 62.161 14.9195C61.5098 15.5513 60.6823 15.8696 59.6859 15.8696C58.6723 15.8696 57.8448 15.5635 57.1936 14.9489C56.5522 14.3343 56.2266 13.5164 56.2266 12.5027C56.229 11.5428 56.5448 10.7421 57.1863 10.1005ZM58.3589 13.9058C58.7213 14.2878 59.1693 14.4739 59.6883 14.4739C60.2832 14.4739 60.7484 14.2878 61.074 13.9254C61.3996 13.5532 61.5661 13.0781 61.5661 12.5027C61.5661 11.9174 61.3898 11.4424 61.0275 11.08C60.6651 10.7176 60.2171 10.5315 59.6883 10.5315C59.1399 10.5315 58.6919 10.7176 58.3394 11.08C57.9868 11.4424 57.8081 11.9174 57.8081 12.5027C57.8105 13.0585 57.9966 13.5238 58.3589 13.9058Z" fill="currentColor"/>
        <path d="M69.3576 15.1154C69.1618 15.3382 68.8655 15.5243 68.4738 15.6639C68.0821 15.8035 67.6733 15.8696 67.2375 15.8696C66.2239 15.8696 65.4038 15.5635 64.7722 14.9489C64.1405 14.3245 63.8223 13.5164 63.8223 12.5027C63.8223 11.5257 64.1209 10.7176 64.7159 10.0834C65.3108 9.45163 66.148 9.1333 67.2277 9.1333C68.0552 9.1333 68.8092 9.41245 69.2181 9.81158L68.5571 10.9282C68.1188 10.6588 67.6733 10.529 67.2277 10.529C66.6964 10.529 66.2607 10.7053 65.9155 11.0506C65.5703 11.3959 65.4038 11.8783 65.4038 12.5027C65.4038 13.0806 65.5899 13.5532 65.9522 13.9254C66.3145 14.2878 66.7895 14.4739 67.3746 14.4739C67.8961 14.4739 68.371 14.3147 68.7896 13.9988L69.3576 15.1154Z" fill="currentColor"/>
        <path d="M70.1582 15.7571V9.24365H71.6467V12.0817L73.7766 9.24365H75.5614L73.1156 12.2482L75.7572 15.7547H73.8697L71.6467 12.6571V15.7547H70.1582V15.7571Z" fill="currentColor"/>
        <path d="M76.4688 9.26335C77.1934 9.22662 77.8544 9.20703 78.4395 9.20703C79.9182 9.20703 80.6258 9.85838 80.6258 10.8256C80.6258 11.4672 80.3736 11.952 79.8815 12.2777V12.2973C80.4128 12.4932 80.8118 13.0049 80.8118 13.786C80.8118 14.4472 80.5793 14.9394 80.1239 15.2846C79.6685 15.6299 79.0736 15.7964 78.3392 15.7964C77.475 15.7964 76.8507 15.7768 76.4688 15.7401V9.26335ZM77.9548 10.6395V11.8222H78.4469C78.9022 11.8222 79.1348 11.6092 79.1348 11.1905C79.1348 10.8183 78.819 10.6052 78.4175 10.6052C78.3367 10.6028 78.18 10.6126 77.9548 10.6395ZM77.9548 13.1249V14.3443C78.0943 14.3811 78.2608 14.4007 78.4567 14.4007C79.0345 14.4007 79.3209 14.168 79.3209 13.7126C79.3209 13.3208 79.0614 13.1274 78.5301 13.1274H77.9548V13.1249Z" fill="currentColor"/>
        <path d="M83.3674 9.24366V11.281C83.573 11.254 83.7665 11.2442 83.9452 11.2442C85.5071 11.2442 86.3175 12.0719 86.3175 13.4407C86.3175 14.1484 86.0849 14.7164 85.6099 15.1425C85.135 15.5612 84.474 15.7743 83.6294 15.7743C83.3772 15.7743 83.0516 15.7743 82.6427 15.7645C82.2437 15.7547 81.9817 15.7547 81.8789 15.7547V9.24121H83.3674V9.24366ZM83.3674 12.6865V14.3418C83.5902 14.3687 83.7395 14.3785 83.8056 14.3785C84.4299 14.3785 84.7359 14.0798 84.7359 13.475C84.7359 12.9167 84.3834 12.6375 83.8154 12.6375C83.7224 12.64 83.573 12.6596 83.3674 12.6865ZM86.9491 15.7571V9.24366H88.4376V15.7571H86.9491Z" fill="currentColor"/>
        <path d="M25.7789 0L23.2107 6.94199H34.7074L34.7049 38.1577H27.9847C25.179 38.1577 22.9414 39 20.8262 41.647V52C22.9439 49.353 25.179 48.5106 27.9847 48.5106H41.6456L41.648 0H25.7789Z" fill="#B12009"/>
    </symbol>
</svg>