<svg width="38" height="38" viewBox="0 0 38 38" fill="none" xmlns="http://www.w3.org/2000/svg">
<path d="M19 0C8.73555 0 0.411743 8.28533 0.411743 18.5023C0.411743 28.7193 8.73555 37.0046 19 37.0046C29.2644 37.0046 37.5882 28.7193 37.5882 18.5023C37.5882 8.28533 29.2644 0 19 0ZM27.4872 14.4261C27.4954 14.6082 27.4994 14.7912 27.4994 14.975C27.4994 20.5867 23.208 27.0578 15.3601 27.0581H15.3604H15.3601C12.9506 27.0581 10.7085 26.3551 8.82036 25.1504C9.15419 25.1897 9.49399 25.2092 9.83803 25.2092C11.8371 25.2092 13.6767 24.5305 15.1372 23.3913C13.2694 23.3569 11.6947 22.129 11.1513 20.4416C11.4114 20.4913 11.6788 20.5184 11.9531 20.5184C12.3425 20.5184 12.7198 20.4662 13.0783 20.3687C11.126 19.9797 9.65537 18.2623 9.65537 16.2059C9.65537 16.1867 9.65537 16.1695 9.65594 16.1517C10.2309 16.4699 10.8883 16.6613 11.5883 16.6827C10.4427 15.9219 9.68969 14.6212 9.68969 13.1478C9.68969 12.3697 9.901 11.6407 10.2675 11.0131C12.3715 13.5828 15.5158 15.2728 19.0618 15.4504C18.9886 15.1393 18.9509 14.8152 18.9509 14.482C18.9509 12.1376 20.8618 10.2356 23.2179 10.2356C24.4452 10.2356 25.5536 10.752 26.3322 11.5775C27.3042 11.3866 28.2169 11.0332 29.0415 10.5467C28.7224 11.538 28.0462 12.3697 27.1652 12.8957C28.0283 12.7929 28.8509 12.5651 29.6153 12.2268C29.0443 13.0786 28.3202 13.8268 27.4872 14.4261Z" fill="white"/>
</svg>
